HIERARCHY
ROOT mixamorig:Hips
{
	OFFSET 0.00 0.00 0.00
	CHANNELS 6 Xposition Yposition Zposition Zrotation Yrotation Xrotation
	JOINT mixamorig:Spine
	{
		OFFSET	0.0000	9.9235	-1.2273
		CHANNELS 3 Zrotation Yrotation Xrotation
		JOINT mixamorig:Spine1
		{
			OFFSET	-0.0001	11.6455	-1.4224
			CHANNELS 3 Zrotation Yrotation Xrotation
			JOINT mixamorig:Spine2
			{
				OFFSET	0.0001	13.3602	-1.6265
				CHANNELS 3 Zrotation Yrotation Xrotation
				JOINT mixamorig:Neck
				{
					OFFSET	0.0000	15.0325	0.7929
					CHANNELS 3 Zrotation Yrotation Xrotation
					JOINT mixamorig:Head
					{
						OFFSET	-0.0000	10.3218	3.1424
						CHANNELS 3 Zrotation Yrotation Xrotation
						JOINT mixamorig:HeadTop_End
						{
							OFFSET	0.0002	18.4747	6.6364
							CHANNELS 3 Zrotation Yrotation Xrotation
							End Site
							{
								OFFSET 0.0000 0.0000 0.0000
							}
						}
						JOINT mixamorig:LeftEye
						{
							OFFSET	2.9479	7.6817	9.1207
							CHANNELS 3 Zrotation Yrotation Xrotation
							End Site
							{
								OFFSET 0.0000 0.0000 0.0000
							}
						}
						JOINT mixamorig:RightEye
						{
							OFFSET	-2.9445	7.6817	9.1205
							CHANNELS 3 Zrotation Yrotation Xrotation
							End Site
							{
								OFFSET 0.0000 0.0000 0.0000
							}
						}
					}
				}
				JOINT mixamorig:LeftShoulder
				{
					OFFSET	6.1059	9.1104	0.7056
					CHANNELS 3 Zrotation Yrotation Xrotation
					JOINT mixamorig:LeftArm
					{
						OFFSET	12.6532	-0.3431	-2.6009
						CHANNELS 3 Zrotation Yrotation Xrotation
						JOINT mixamorig:LeftForeArm
						{
							OFFSET	27.3517	-0.9645	-1.4034
							CHANNELS 3 Zrotation Yrotation Xrotation
							JOINT mixamorig:LeftHand
							{
								OFFSET	27.5619	-0.7072	1.5500
								CHANNELS 3 Zrotation Yrotation Xrotation
								JOINT mixamorig:LeftHandMiddle1
								{
									OFFSET	12.6630	-1.3962	0.9548
									CHANNELS 3 Zrotation Yrotation Xrotation
									JOINT mixamorig:LeftHandMiddle2
									{
										OFFSET	3.6093	-0.1669	0.0778
										CHANNELS 3 Zrotation Yrotation Xrotation
										JOINT mixamorig:LeftHandMiddle3
										{
											OFFSET	3.4004	-0.6274	0.1148
											CHANNELS 3 Zrotation Yrotation Xrotation
											End Site
											{
												OFFSET 3.6205 -0.6493 0.1199
											}
										}
									}
								}
								JOINT mixamorig:LeftHandThumb1
								{
									OFFSET	3.3268	-2.0474	3.5790
									CHANNELS 3 Zrotation Yrotation Xrotation
									JOINT mixamorig:LeftHandThumb2
									{
										OFFSET	3.4890	-1.4806	2.8548
										CHANNELS 3 Zrotation Yrotation Xrotation
										JOINT mixamorig:LeftHandThumb3
										{
											OFFSET	3.4086	-1.7658	2.1133
											CHANNELS 3 Zrotation Yrotation Xrotation
											End Site
											{
												OFFSET 2.7231 -1.1597 1.7903
											}
										}
									}
								}
								JOINT mixamorig:LeftHandIndex1
								{
									OFFSET	11.9722	-1.1061	3.7324
									CHANNELS 3 Zrotation Yrotation Xrotation
									JOINT mixamorig:LeftHandIndex2
									{
										OFFSET	3.8387	-0.6406	-0.0310
										CHANNELS 3 Zrotation Yrotation Xrotation
										JOINT mixamorig:LeftHandIndex3
										{
											OFFSET	3.3346	-0.7374	-0.0133
											CHANNELS 3 Zrotation Yrotation Xrotation
											End Site
											{
												OFFSET 2.9714 -0.8030 0.0009
											}
										}
									}
								}
								JOINT mixamorig:LeftHandRing1
								{
									OFFSET	12.1659	-1.6805	-1.2769
									CHANNELS 3 Zrotation Yrotation Xrotation
									JOINT mixamorig:LeftHandRing2
									{
										OFFSET	3.5925	-0.2366	-0.0771
										CHANNELS 3 Zrotation Yrotation Xrotation
										JOINT mixamorig:LeftHandRing3
										{
											OFFSET	3.2906	-0.3266	-0.0615
											CHANNELS 3 Zrotation Yrotation Xrotation
											End Site
											{
												OFFSET 3.5423 -0.9211 -0.0200
											}
										}
									}
								}
								JOINT mixamorig:LeftHandPinky1
								{
									OFFSET	11.0508	-2.1872	-3.8040
									CHANNELS 3 Zrotation Yrotation Xrotation
									JOINT mixamorig:LeftHandPinky2
									{
										OFFSET	4.1236	-0.3047	0.1212
										CHANNELS 3 Zrotation Yrotation Xrotation
										JOINT mixamorig:LeftHandPinky3
										{
											OFFSET	2.5805	-0.2597	0.0823
											CHANNELS 3 Zrotation Yrotation Xrotation
											End Site
											{
												OFFSET 2.9027 -0.3379 0.0963
											}
										}
									}
								}
							}
						}
					}
				}
				JOINT mixamorig:RightShoulder
				{
					OFFSET	-6.1057	9.1105	0.7056
					CHANNELS 3 Zrotation Yrotation Xrotation
					JOINT mixamorig:RightArm
					{
						OFFSET	-12.6532	-0.3429	-2.6009
						CHANNELS 3 Zrotation Yrotation Xrotation
						JOINT mixamorig:RightForeArm
						{
							OFFSET	-27.3518	-0.9642	-1.4034
							CHANNELS 3 Zrotation Yrotation Xrotation
							JOINT mixamorig:RightHand
							{
								OFFSET	-27.5619	-0.7068	1.5501
								CHANNELS 3 Zrotation Yrotation Xrotation
								JOINT mixamorig:RightHandMiddle1
								{
									OFFSET	-12.6630	-1.3960	0.9549
									CHANNELS 3 Zrotation Yrotation Xrotation
									JOINT mixamorig:RightHandMiddle2
									{
										OFFSET	-3.6093	-0.1669	0.0778
										CHANNELS 3 Zrotation Yrotation Xrotation
										JOINT mixamorig:RightHandMiddle3
										{
											OFFSET	-3.4004	-0.6273	0.1148
											CHANNELS 3 Zrotation Yrotation Xrotation
											End Site
											{
												OFFSET -3.6205 -0.6492 0.1199
											}
										}
									}
								}
								JOINT mixamorig:RightHandThumb1
								{
									OFFSET	-3.3269	-2.0474	3.5790
									CHANNELS 3 Zrotation Yrotation Xrotation
									JOINT mixamorig:RightHandThumb2
									{
										OFFSET	-3.4890	-1.4805	2.8548
										CHANNELS 3 Zrotation Yrotation Xrotation
										JOINT mixamorig:RightHandThumb3
										{
											OFFSET	-3.4086	-1.7658	2.1133
											CHANNELS 3 Zrotation Yrotation Xrotation
											End Site
											{
												OFFSET -2.7231 -1.1596 1.7903
											}
										}
									}
								}
								JOINT mixamorig:RightHandIndex1
								{
									OFFSET	-11.9722	-1.1059	3.7324
									CHANNELS 3 Zrotation Yrotation Xrotation
									JOINT mixamorig:RightHandIndex2
									{
										OFFSET	-3.8387	-0.6406	-0.0310
										CHANNELS 3 Zrotation Yrotation Xrotation
										JOINT mixamorig:RightHandIndex3
										{
											OFFSET	-3.3346	-0.7373	-0.0133
											CHANNELS 3 Zrotation Yrotation Xrotation
											End Site
											{
												OFFSET -2.9715 -0.8029 0.0009
											}
										}
									}
								}
								JOINT mixamorig:RightHandRing1
								{
									OFFSET	-12.1659	-1.6803	-1.2769
									CHANNELS 3 Zrotation Yrotation Xrotation
									JOINT mixamorig:RightHandRing2
									{
										OFFSET	-3.5925	-0.2366	-0.0771
										CHANNELS 3 Zrotation Yrotation Xrotation
										JOINT mixamorig:RightHandRing3
										{
											OFFSET	-3.2906	-0.3265	-0.0615
											CHANNELS 3 Zrotation Yrotation Xrotation
											End Site
											{
												OFFSET -3.5423 -0.9210 -0.0200
											}
										}
									}
								}
								JOINT mixamorig:RightHandPinky1
								{
									OFFSET	-11.0508	-2.1870	-3.8040
									CHANNELS 3 Zrotation Yrotation Xrotation
									JOINT mixamorig:RightHandPinky2
									{
										OFFSET	-4.1236	-0.3046	0.1212
										CHANNELS 3 Zrotation Yrotation Xrotation
										JOINT mixamorig:RightHandPinky3
										{
											OFFSET	-2.5805	-0.2597	0.0823
											CHANNELS 3 Zrotation Yrotation Xrotation
											End Site
											{
												OFFSET -2.9027 -0.3379 0.0963
											}
										}
									}
								}
							}
						}
					}
				}
			}
		}
	}
	JOINT mixamorig:RightUpLeg
	{
		OFFSET	-9.1245	-6.6564	-0.0554
		CHANNELS 3 Zrotation Yrotation Xrotation
		JOINT mixamorig:RightLeg
		{
			OFFSET	0.0000	-40.5610	-1.7662
			CHANNELS 3 Zrotation Yrotation Xrotation
			JOINT mixamorig:RightFoot
			{
				OFFSET	0.4978	-41.9625	-3.3512
				CHANNELS 3 Zrotation Yrotation Xrotation
				JOINT mixamorig:RightToeBase
				{
					OFFSET	-0.3734	-10.4922	12.6406
					CHANNELS 3 Zrotation Yrotation Xrotation
					End Site
					{
						OFFSET 0.0000 0.0000 9.9925
					}
				}
			}
		}
	}
	JOINT mixamorig:LeftUpLeg
	{
		OFFSET	9.1245	-6.6564	-0.0554
		CHANNELS 3 Zrotation Yrotation Xrotation
		JOINT mixamorig:LeftLeg
		{
			OFFSET	-0.0000	-40.5610	-1.7662
			CHANNELS 3 Zrotation Yrotation Xrotation
			JOINT mixamorig:LeftFoot
			{
				OFFSET	-0.4978	-41.9625	-3.3512
				CHANNELS 3 Zrotation Yrotation Xrotation
				JOINT mixamorig:LeftToeBase
				{
					OFFSET	0.3734	-10.4922	12.6406
					CHANNELS 3 Zrotation Yrotation Xrotation
					End Site
					{
						OFFSET -0.0000 0.0000 9.9925
					}
				}
			}
		}
	}
}
MOTION
Frames: 4
Frame Time: 0.0333333
-0.0108 98.5434 -0.2437 1.2992 5.1609 -4.5963 0.6347 -5.2547 8.9371 -1.5030 -1.3900 2.9425 -1.4702 -1.3213 2.9709 3.2404 -0.6141 -0.3468 -0.8139 1.3242 -13.6569 0.0000 -0.0000 0.0000 0.0000 -0.0000 0.0000 0.0000 -0.0000 0.0000 -8.7739 -0.7302 0.6951 -58.9182 -10.5324 11.3842 3.5245 -74.5245 -5.3375 -23.0986 6.7678 -117.0752 -72.3345 -13.8023 3.3652 -59.0772 -2.1534 2.5953 9.3338 0.5526 -0.1696 11.8350 -37.6728 8.7584 -4.7253 -0.2531 -17.9028 9.1909 10.7573 -8.1336 -64.0401 -17.3880 0.7468 -68.4924 -3.2571 0.9847 17.6350 0.9457 0.4282 -70.5843 -11.8674 3.0984 -70.9370 -3.8755 0.7586 8.6979 0.6914 0.2867 -64.9588 -8.4172 2.9553 -66.8567 -2.1819 3.3712 11.4696 0.7213 -0.2262 -1.3262 16.3632 7.3860 61.8055 2.3500 13.0094 -169.3535 80.1106 -171.4887 31.8956 -3.7416 -16.1267 75.2157 -2.5062 5.2002 101.2876 3.2040 6.4780 92.7352 3.4545 5.8808 20.0728 30.2083 66.9121 1.4983 -33.0517 -16.8361 -43.3648 -49.6003 38.6484 13.9317 12.6993 -1.4470 47.7815 3.4118 0.5003 100.0438 5.3398 3.7175 77.3158 3.7008 4.9833 80.2202 5.5043 2.1030 28.9778 2.2389 -0.1759 81.9224 -0.4947 5.7335 48.0813 2.9326 2.5189 78.8131 3.3830 5.0208 3.9229 -5.9683 -7.9952 -0.9253 -1.0587 16.4553 -5.1503 1.9741 -4.3872 0.0000 -0.0000 -0.1288 -2.1960 5.8912 -27.9708 5.2469 -4.0826 60.1063 -2.0270 2.9610 2.9164 -0.0000 0.0000 0.0056 
0.2655 98.3899 0.2254 0.6788 4.4510 -5.2437 1.4395 -5.4462 9.1211 -1.3647 -1.4342 2.9597 -1.3312 -1.3645 2.9886 3.2751 -0.5987 -0.3142 -1.2909 1.5649 -14.4169 0.0000 -0.0000 0.0000 0.0000 -0.0000 0.0000 0.0000 -0.0000 0.0000 -8.7739 -0.7302 0.6951 -58.9182 -10.5324 11.3842 3.5246 -74.5245 -5.3375 -22.7865 6.9962 -116.8862 -72.3345 -13.8024 3.3652 -59.0772 -2.1533 2.5952 9.3338 0.5526 -0.1696 11.8350 -37.6728 8.7584 -4.7253 -0.2531 -17.9028 9.1909 10.7573 -8.1336 -64.0401 -17.3880 0.7468 -68.4924 -3.2571 0.9848 17.6350 0.9457 0.4282 -70.5843 -11.8674 3.0984 -70.9371 -3.8755 0.7586 8.6979 0.6914 0.2867 -64.9588 -8.4172 2.9553 -66.8567 -2.1819 3.3712 11.4696 0.7213 -0.2263 -1.3262 16.3632 7.3860 61.8603 2.4048 13.0674 -169.3535 80.1106 -171.4887 32.0271 -3.4521 -16.1623 75.2157 -2.5062 5.2002 101.2876 3.2039 6.4780 92.7352 3.4545 5.8808 20.0728 30.2083 66.9121 1.4983 -33.0517 -16.8361 -43.3648 -49.6003 38.6484 13.9317 12.6993 -1.4470 47.7815 3.4117 0.5004 100.0438 5.3398 3.7175 77.3158 3.7008 4.9833 80.2202 5.5043 2.1030 28.9778 2.2389 -0.1759 81.9223 -0.4947 5.7335 48.0813 2.9326 2.5189 78.8131 3.3830 5.0208 4.8842 -7.5642 -9.3462 -1.0608 1.4065 16.4387 -4.8983 1.6561 -2.4453 0.0000 -0.0000 -0.1288 -1.3159 5.6143 -24.9452 3.9232 -4.5424 61.7573 -6.2595 2.6285 3.7001 0.0000 0.0000 -0.2982 
0.5988 98.1040 0.5632 0.3775 3.9825 -5.5963 1.9042 -5.6968 9.0651 -1.2556 -1.4977 2.9611 -1.2211 -1.4279 2.9902 3.3249 -0.5457 -0.3167 -1.6220 2.0145 -14.8372 0.0000 -0.0000 0.0000 0.0000 -0.0000 0.0000 0.0000 -0.0000 0.0000 -8.7738 -0.7302 0.6951 -58.9182 -10.5324 11.3842 3.5246 -74.5245 -5.3375 -22.5203 7.1889 -116.7136 -72.3345 -13.8023 3.3652 -59.0772 -2.1534 2.5953 9.3338 0.5525 -0.1696 11.8350 -37.6728 8.7584 -4.7253 -0.2531 -17.9028 9.1909 10.7573 -8.1336 -64.0401 -17.3880 0.7468 -68.4924 -3.2571 0.9848 17.6350 0.9457 0.4282 -70.5843 -11.8674 3.0984 -70.9371 -3.8755 0.7586 8.6979 0.6914 0.2867 -64.9588 -8.4172 2.9553 -66.8567 -2.1819 3.3712 11.4696 0.7213 -0.2263 -1.3262 16.3632 7.3860 61.8572 2.4016 13.0641 -169.3535 80.1106 -171.4888 32.1771 -3.1251 -16.2025 75.2158 -2.5062 5.2002 101.2877 3.2039 6.4780 92.7352 3.4545 5.8808 20.0728 30.2083 66.9121 1.4983 -33.0517 -16.8361 -43.3648 -49.6003 38.6484 13.9317 12.6993 -1.4470 47.7815 3.4118 0.5004 100.0439 5.3398 3.7175 77.3158 3.7008 4.9833 80.2202 5.5043 2.1030 28.9778 2.2389 -0.1759 81.9224 -0.4947 5.7335 48.0813 2.9326 2.5189 78.8131 3.3830 5.0208 5.7022 -9.3207 -11.4704 -1.2817 3.9199 17.1311 -4.5773 1.2464 -0.7617 -0.0000 0.0000 -0.1288 -0.9549 5.3563 -22.1958 2.0262 -5.2110 63.2817 -10.2831 2.3900 4.5413 1.3114 0.0177 -1.6534 
0.9425 97.7910 0.8682 0.1783 3.5754 -5.8431 2.2095 -5.9740 8.8136 -1.1748 -1.5718 2.9440 -1.1390 -1.5020 2.9732 3.3599 -0.5147 -0.2638 -1.7293 2.1922 -14.9463 0.0000 -0.0000 0.0000 0.0000 -0.0000 0.0000 0.0000 -0.0000 0.0000 -8.7739 -0.7302 0.6951 -58.9182 -10.5324 11.3842 3.5246 -74.5245 -5.3376 -22.2909 7.3545 -116.5559 -72.3345 -13.8023 3.3652 -59.0772 -2.1534 2.5953 9.3338 0.5526 -0.1696 11.8350 -37.6728 8.7584 -4.7253 -0.2531 -17.9028 9.1909 10.7573 -8.1336 -64.0401 -17.3880 0.7468 -68.4924 -3.2571 0.9847 17.6350 0.9457 0.4282 -70.5843 -11.8674 3.0984 -70.9371 -3.8755 0.7586 8.6979 0.6914 0.2867 -64.9588 -8.4171 2.9553 -66.8567 -2.1819 3.3712 11.4696 0.7213 -0.2263 -1.3262 16.3632 7.3860 61.8263 2.3701 13.0299 -169.3535 80.1106 -171.4887 32.3279 -2.7957 -16.2428 75.2158 -2.5062 5.2002 101.2876 3.2040 6.4780 92.7353 3.4545 5.8808 20.0728 30.2083 66.9121 1.4983 -33.0517 -16.8361 -43.3648 -49.6003 38.6483 13.9317 12.6993 -1.4469 47.7815 3.4118 0.5003 100.0439 5.3398 3.7175 77.3158 3.7008 4.9833 80.2202 5.5043 2.1030 28.9778 2.2389 -0.1759 81.9224 -0.4947 5.7335 48.0813 2.9326 2.5189 78.8131 3.3830 5.0208 6.5172 -10.9373 -13.4746 -1.4859 6.2782 17.2772 -4.2617 0.8756 1.2098 -0.0000 -0.0000 -0.1288 -0.7479 5.2161 -19.2342 0.3756 -5.6049 63.9631 -13.6093 2.2003 5.5252 4.9929 0.0538 -3.9821 
